<?xml version="1.0" encoding="utf-8"?>
<!-- Generator: Adobe Illustrator 17.0.2, SVG Export Plug-In . SVG Version: 6.00 Build 0)  -->
<!DOCTYPE svg PUBLIC "-//W3C//DTD SVG 1.1//EN" "http://www.w3.org/Graphics/SVG/1.1/DTD/svg11.dtd">
<svg version="1.1" id="Layer_1" xmlns="http://www.w3.org/2000/svg" xmlns:xlink="http://www.w3.org/1999/xlink" x="0px" y="0px"
	 width="288px" height="288px" viewBox="0 0 288 288" enable-background="new 0 0 288 288" xml:space="preserve">

<defs>
	<clipPath id="c1" clip-rule="evenodd">
		<path d="M84.685,129.308c-2.647-1.966-5.96-2.82-9.233-2.418
		c-4.515,0.554-7.186,3.059-8.572,4.833c-2.277,2.915-3.075,6.679-2.701,9.726c0.388,3.16,2.031,6.281,4.706,8.473
		c2.661,2.079,6.227,3.131,9.726,2.701c3.047-0.374,6.168-2.018,8.261-4.566c2.291-2.802,3.174-6.805,2.772-10.078
		C89.187,134.254,87.205,131.175,84.685,129.308z M165.028,138.002c2.548,2.093,6.241,3.244,10.078,2.772
		c3.273-0.402,6.154-2.13,8.035-4.538c1.895-2.295,3.313-5.677,2.786-9.966c-0.443-3.612-2.214-6.831-4.861-8.797
		c-2.774-2.065-6.524-2.75-9.459-2.39c-3.499,0.43-6.592,2.299-8.473,4.706c-1.485,1.901-3.156,5.085-2.602,9.599
		C161.088,133.903,163.367,136.602,165.028,138.002z M288,256.505L256.505,0L0,31.495L31.495,288l37.516-4.606l11.825-29.617
		l-29.431-40.952l18.735-2.3l17.574,25.567l10.529-29.017l18.284-2.245l-29.31,76.33L288,256.505z M239.797,157.271l10.102,82.277
		l-16.252,1.996l-10.102-82.277L239.797,157.271z M217.979,222.159c0.707,5.756,0.808,11.243-3.661,16.832
		c-5.063,6.35-13.417,8.292-19.399,9.027c-6.208,0.762-14.67,0.885-21.119-4.052c-5.182-3.946-6.708-8.914-7.387-14.445
		l-3.728-30.36l16.252-1.996l3.409,27.764c0.277,2.257,0.932,5.728,3.819,7.78c1.253,0.877,3.451,1.982,7.063,1.539
		c3.047-0.374,5.293-1.681,6.594-3.215c2.093-2.548,2.016-5.976,1.711-8.459l-3.409-27.764l16.252-1.995L217.979,222.159z
		 M149.179,110.62c3.861-4.942,9.651-8.173,16.648-9.033c4.289-0.527,11.298-0.356,16.702,5.396l-0.693-5.643l16.252-1.996
		l6.181,50.337l-16.252,1.996l-0.748-6.095c-3.57,7.312-9.766,9.104-13.942,9.617c-7.223,0.887-13.54-0.171-19.791-5.36
		c-5.997-4.992-8.833-11.288-9.65-17.947C142.846,123.427,145.119,115.815,149.179,110.62z M152.386,168.462l1.746,14.221
		c-1.944-0.907-4.411-1.406-6.443-1.156c-2.483,0.305-3.924,1.628-4.491,2.614c-1.515,2.592-1.03,6.542-0.739,8.912l1.039,8.465
		l12.866-1.58l1.607,13.092l-12.866,1.58l4.573,37.245l-16.252,1.996l-4.573-37.245l-5.869,0.721l-1.607-13.092l5.869-0.721
		l-1.219-9.932c-0.693-5.643-0.919-12.146,3.495-18.187c2.843-3.901,7.194-6.726,13.401-7.488
		C146.535,167.462,149.553,167.779,152.386,168.462z M100.829,157.227c-4.356,5.576-9.552,8.047-16.211,8.864
		c-10.045,1.233-14.957-3.319-16.941-5.481l3.88,31.602l-16.252,1.996l-9.354-76.183l16.252-1.996l0.734,5.982
		c4.459-7.536,10.908-9.13,14.746-9.601c9.029-1.109,15.157,2.149,18.705,4.921c5.069,3.96,8.961,10.471,9.973,18.71
		C107.429,144.731,105.186,151.651,100.829,157.227z M109.971,77.742l16.252-1.996l10.102,82.277l-16.252,1.996L109.971,77.742z"/>
	</clipPath>
</defs>
<g id="pf">
	<g>
		<path id="pfp" fill-rule="evenodd" fill="#FFFFFF" d="M84.685,129.308c-2.647-1.966-5.96-2.82-9.233-2.418
			c-4.515,0.554-7.186,3.059-8.572,4.833c-2.277,2.915-3.075,6.679-2.701,9.726c0.388,3.16,2.031,6.281,4.706,8.473
			c2.661,2.079,6.227,3.131,9.726,2.701c3.047-0.374,6.168-2.018,8.261-4.566c2.291-2.802,3.174-6.805,2.772-10.078
			C89.187,134.254,87.205,131.175,84.685,129.308z M165.028,138.002c2.548,2.093,6.241,3.244,10.078,2.772
			c3.273-0.402,6.154-2.13,8.035-4.538c1.895-2.295,3.313-5.677,2.786-9.966c-0.443-3.612-2.214-6.831-4.861-8.797
			c-2.774-2.065-6.524-2.75-9.459-2.39c-3.499,0.43-6.592,2.299-8.473,4.706c-1.485,1.901-3.156,5.085-2.602,9.599
			C161.088,133.903,163.367,136.602,165.028,138.002z M288,256.505L256.505,0L0,31.495L31.495,288l37.516-4.606l11.825-29.617
			l-29.431-40.952l18.735-2.3l17.574,25.567l10.529-29.017l18.284-2.245l-29.31,76.33L288,256.505z M239.797,157.271l10.102,82.277
			l-16.252,1.996l-10.102-82.277L239.797,157.271z M217.979,222.159c0.707,5.756,0.808,11.243-3.661,16.832
			c-5.063,6.35-13.417,8.292-19.399,9.027c-6.208,0.762-14.67,0.885-21.119-4.052c-5.182-3.946-6.708-8.914-7.387-14.445
			l-3.728-30.36l16.252-1.996l3.409,27.764c0.277,2.257,0.932,5.728,3.819,7.78c1.253,0.877,3.451,1.982,7.063,1.539
			c3.047-0.374,5.293-1.681,6.594-3.215c2.093-2.548,2.016-5.976,1.711-8.459l-3.409-27.764l16.252-1.995L217.979,222.159z
			 M149.179,110.62c3.861-4.942,9.651-8.173,16.648-9.033c4.289-0.527,11.298-0.356,16.702,5.396l-0.693-5.643l16.252-1.996
			l6.181,50.337l-16.252,1.996l-0.748-6.095c-3.57,7.312-9.766,9.104-13.942,9.617c-7.223,0.887-13.54-0.171-19.791-5.36
			c-5.997-4.992-8.833-11.288-9.65-17.947C142.846,123.427,145.119,115.815,149.179,110.62z M152.386,168.462l1.746,14.221
			c-1.944-0.907-4.411-1.406-6.443-1.156c-2.483,0.305-3.924,1.628-4.491,2.614c-1.515,2.592-1.03,6.542-0.739,8.912l1.039,8.465
			l12.866-1.58l1.607,13.092l-12.866,1.58l4.573,37.245l-16.252,1.996l-4.573-37.245l-5.869,0.721l-1.607-13.092l5.869-0.721
			l-1.219-9.932c-0.693-5.643-0.919-12.146,3.495-18.187c2.843-3.901,7.194-6.726,13.401-7.488
			C146.535,167.462,149.553,167.779,152.386,168.462z M100.829,157.227c-4.356,5.576-9.552,8.047-16.211,8.864
			c-10.045,1.233-14.957-3.319-16.941-5.481l3.88,31.602l-16.252,1.996l-9.354-76.183l16.252-1.996l0.734,5.982
			c4.459-7.536,10.908-9.13,14.746-9.601c9.029-1.109,15.157,2.149,18.705,4.921c5.069,3.96,8.961,10.471,9.973,18.71
			C107.429,144.731,105.186,151.651,100.829,157.227z M109.971,77.742l16.252-1.996l10.102,82.277l-16.252,1.996L109.971,77.742z"/>

	</g>
</g>
</svg>
